<?xml version="1.0" encoding="UTF-8" standalone="no"?>
<!DOCTYPE svg PUBLIC "-//W3C//DTD SVG 1.1//EN" "http://www.w3.org/Graphics/SVG/1.1/DTD/svg11.dtd">
<svg width="100%" height="100%" viewBox="0 0 309 334" version="1.1" xmlns="http://www.w3.org/2000/svg" xmlns:xlink="http://www.w3.org/1999/xlink" xml:space="preserve" xmlns:serif="http://www.serif.com/" style="fill-rule:evenodd;clip-rule:evenodd;stroke-linecap:round;stroke-linejoin:round;stroke-miterlimit:1.5;">
    <g transform="matrix(1,0,0,1,-6434.47,-1948.64)">
        <g transform="matrix(1,0,0,1,5947.58,1849.84)">
            <g transform="matrix(1,0,0,1,-5965.4,-1849.84)">
                <path id="svg-path-1" d="M6735.02,2025.59C6735.93,1993.81 6677.83,1961.57 6636.07,1961.35C6594.31,1961.13 6436.35,2028.31 6453.6,2079.15C6470.85,2129.98 6582.51,2277.05 6737.74,2221.67C6807.57,2180.82 6699.53,2144.18 6697.23,2116.05C6700.74,2082.12 6734.11,2057.36 6735.02,2025.59Z" style="fill:rgb(42,25,96);"/>
            </g>
        </g>
        <g transform="matrix(1,0,0,1,5947.58,1849.84)">
            <g transform="matrix(0.545065,0.838394,-0.838394,0.545065,-1201.11,-6434.6)">
                <path d="M6735.02,2025.59C6735.93,1993.81 6677.83,1961.57 6636.07,1961.35C6594.31,1961.13 6436.35,2028.31 6453.6,2079.15C6470.85,2129.98 6582.51,2277.05 6737.74,2221.67C6807.57,2180.82 6699.53,2144.18 6697.23,2116.05C6700.74,2082.12 6734.11,2057.36 6735.02,2025.59Z" style="fill:rgb(83,25,96);"/>
            </g>
        </g>
        <g transform="matrix(1,0,0,1,5947.58,1849.84)">
            <g transform="matrix(0.554038,0,0,0.554038,432.278,34.14)">
                <g transform="matrix(1,0,0,1,-4939.16,-2862.81)">
                    <path d="M5165,3463.49L5162.98,3467.06L5162.98,3479.91C5162.98,3479.91 5201.65,3526.11 5324.92,3523.02C5448.19,3519.92 5470.04,3481.58 5470.04,3481.58L5470.04,3470.16C5470.04,3470.16 5436.77,3505.85 5304.93,3505.85C5173.09,3505.85 5165,3463.49 5165,3463.49Z" style="fill:rgb(143,145,134);"/>
                    <clipPath id="_clip1">
                        <path d="M5165,3463.49L5162.98,3467.06L5162.98,3479.91C5162.98,3479.91 5201.65,3526.11 5324.92,3523.02C5448.19,3519.92 5470.04,3481.58 5470.04,3481.58L5470.04,3470.16C5470.04,3470.16 5436.77,3505.85 5304.93,3505.85C5173.09,3505.85 5165,3463.49 5165,3463.49Z"/>
                    </clipPath>
                    <g clip-path="url(#_clip1)">
                        <path d="M5441.41,3506.19L5438.39,3502.67L5449.02,3493.94C5449.02,3493.94 5430.69,3501.99 5428.55,3502.77C5426.4,3503.55 5415.58,3506.19 5415.58,3506.19L5406.52,3510.45C5406.52,3510.45 5415.68,3507.84 5416.65,3507.84C5417.63,3507.84 5425.62,3506.19 5425.62,3506.19L5427.18,3509.3L5428.74,3510.45L5441.41,3506.19Z" style="stroke:black;stroke-width:2.14px;"/>
                        <path d="M5177.51,3494.12L5179.46,3490.59L5174.1,3481.7L5184.95,3490.84L5214.55,3502.05L5202.61,3501.56L5198.59,3503.02L5198.23,3506.19L5177.51,3494.12Z" style="stroke:black;stroke-width:2.14px;"/>
                    </g>
                    <path d="M5167.1,3463.09C5166.93,3462.21 5166.23,3461.53 5165.35,3461.38C5164.46,3461.24 5163.58,3461.66 5163.14,3462.44L5161.12,3466.01C5160.94,3466.33 5160.84,3466.7 5160.84,3467.06L5160.84,3479.91C5160.84,3480.42 5161.02,3480.9 5161.34,3481.29C5161.34,3481.29 5200.35,3528.28 5324.97,3525.16C5449.9,3522.02 5471.9,3482.64 5471.9,3482.64C5472.09,3482.32 5472.18,3481.95 5472.18,3481.58L5472.18,3470.16C5472.18,3469.28 5471.65,3468.49 5470.83,3468.17C5470.01,3467.85 5469.08,3468.06 5468.48,3468.7C5468.48,3468.7 5435.46,3503.72 5304.93,3503.72C5239.6,3503.72 5204.92,3493.31 5186.59,3482.82C5169.19,3472.86 5167.1,3463.09 5167.1,3463.09ZM5165,3463.49L5162.98,3467.06L5162.98,3479.91C5162.98,3479.91 5201.65,3526.11 5324.92,3523.02C5448.19,3519.92 5470.04,3481.58 5470.04,3481.58L5470.04,3470.16C5470.04,3470.16 5436.77,3505.85 5304.93,3505.85C5173.09,3505.85 5165,3463.49 5165,3463.49Z"/>
                </g>
                <g transform="matrix(1,0,0,1,-4939.16,-2862.81)">
                    <path d="M5162.98,3033.52L5160.3,3030.4L5160.55,3021.82C5160.55,3021.82 5198.03,2999.47 5317.4,3002.8C5436.76,3006.13 5470.04,3020.41 5470.04,3020.41L5470.04,3030.4C5470.04,3030.4 5445.77,3060.63 5317.4,3060.63C5189.03,3060.63 5162.98,3033.52 5162.98,3033.52" style="fill:rgb(143,145,134);stroke:black;stroke-width:3.25px;"/>
                </g>
                <g transform="matrix(1,0,0,1,-4939.16,-2862.81)">
                    <path d="M5235.1,3036.56C5235.1,3036.56 5269.18,3023.47 5307.25,3024.68C5345.33,3025.9 5396.73,3035.5 5396.73,3035.5" style="fill:none;stroke:black;stroke-width:2.14px;"/>
                </g>
                <g transform="matrix(1,0,0,1,-4939.16,-2862.81)">
                    <path d="M5174.48,3022.47C5174.48,3022.47 5221.98,3007.82 5315.17,3009.07C5406.33,3010.29 5451.54,3024.68 5451.54,3024.68" style="fill:none;stroke:black;stroke-width:2.14px;"/>
                </g>
                <g transform="matrix(1,0,0,1,-4939.16,-2862.81)">
                    <path d="M5174.48,3022.47C5174.48,3022.47 5207.13,3042.35 5315.17,3039.73C5423.22,3037.11 5451.54,3024.5 5451.54,3024.5" style="fill:none;stroke:black;stroke-width:3.25px;"/>
                </g>
                <g transform="matrix(1,0,0,1,-4939.16,-2862.81)">
                    <path d="M5160.3,3022.55C5160.3,3022.55 5185.7,3047.3 5321.11,3046.83C5456.51,3046.35 5470.04,3021.12 5470.04,3021.12" style="fill:none;stroke:black;stroke-width:3.25px;"/>
                </g>
                <g transform="matrix(0.525795,0,0,0.525795,-13300.1,-5217.61)">
                    <use xlink:href="#_Image2" x="25720" y="10241" width="586px" height="911px"/>
                </g>
                <g transform="matrix(1,0,0,1,-4939.16,-2862.81)">
                    <path d="M5207,3032.66C5207,3032.66 5253.28,3015.81 5313.01,3018.28C5372.74,3020.76 5424.14,3031.22 5424.14,3031.22" style="fill:none;stroke:black;stroke-width:2.14px;"/>
                </g>
            </g>
        </g>
    </g>
    <defs>
        <image id="_Image2" width="586px" height="911px" src="/assets/can-only.png"/>
    </defs>
</svg>
